<svg xmlns="http://www.w3.org/2000/svg" width="13.61" height="13" viewBox="0 0 13.61 13">
  <path id="Icon_awesome-star-half-alt" data-name="Icon awesome-star-half-alt" d="M12.912,4.355,9.2,3.814,7.535.452a.815.815,0,0,0-1.46,0L4.413,3.813.7,4.354A.812.812,0,0,0,.246,5.74L2.935,8.355,2.3,12.049A.814.814,0,0,0,3.1,13a.8.8,0,0,0,.378-.1L6.8,11.161l3.325,1.744a.812.812,0,0,0,1.18-.855l-.636-3.694,2.689-2.615a.812.812,0,0,0-.45-1.386ZM9.821,7.483l-.46.447.109.632.5,2.881L7.372,10.082l-.568-.3L3.479,11.443l.565-2.881.149-.632-.377-.447L1.943,5.442,4.73,5.02l.576-.092.256-.573L6.8,1.73,8.1,4.353l.284.575.635.092,2.9.422-2.1,2.041Z" transform="translate(0)"/>
</svg>
